<svg width="256" height="256" fill="none" xmlns="http://www.w3.org/2000/svg"><circle cx="128" cy="128" r="128" fill="#E07C3E"/><path d="M209.573 88.32c-7.287-13.718-28.279-24.943-52.697-18.408-11.668 3.092-21.848 9.722-28.877 18.808-7.029-9.086-17.209-15.716-28.878-18.808-24.472-6.435-45.41 4.69-52.697 18.409-10.224 19.207-5.982 40.808 12.617 64.205 14.575 18.309 35.404 36.867 65.64 58.419a5.759 5.759 0 003.345 1.055 5.759 5.759 0 003.345-1.055c30.182-21.502 51.065-39.91 65.64-58.419 18.544-23.397 22.786-44.998 12.562-64.205z" fill="#fff"/></svg>