<svg width="256" height="256" viewBox="0 0 256 256" fill="none" xmlns="http://www.w3.org/2000/svg">
<path d="M248.016 63.9167C237.294 43.7191 206.41 27.1938 170.484 36.8152C153.318 41.3669 138.34 51.1282 127.998 64.5043C117.657 51.1282 102.679 41.3669 85.512 36.8152C49.5067 27.3406 18.7022 43.7191 7.98058 63.9167C-7.06163 92.1934 -0.820714 123.995 26.5433 158.442C47.9865 185.396 78.631 212.718 123.118 244.447C124.523 245.453 126.255 246 128.038 246C129.821 246 131.553 245.453 132.959 244.447C177.365 212.792 208.09 185.69 229.533 158.442C256.817 123.995 263.058 92.1934 248.016 63.9167V63.9167Z" fill="#CD2020"/>
</svg>
