<svg id="Lager_1" data-name="Lager 1" xmlns="http://www.w3.org/2000/svg" viewBox="0 0 434.15 45.6"><defs><style>.cls-1{fill:#e07c3e}.cls-2{fill:#686569}</style></defs><path class="cls-1" d="M35 40.07a5 5 0 01-1.78.21c-1 0-2.11-.26-3.1-2.09l-3.82-7.43c4.38-1.37 6.89-4.86 6.89-9.66 0-6.38-4.43-10.5-11.29-10.5H9.24v34.23h5.17V31.42h5.94l4.29 8c1.62 3 3.46 5.63 8.12 5.63a9.73 9.73 0 002.85-.41l.36-.1-.43-4.72zM14.41 15.24h7.47c3.79 0 6.06 2.19 6.06 5.86S25.67 27 21.88 27h-7.47zM54.52 15.82a2.94 2.94 0 003.12-3 3.13 3.13 0 00-6.25 0 2.94 2.94 0 003.13 3zM45.58 15.82a2.94 2.94 0 003.12-3 3.13 3.13 0 00-6.25 0 2.94 2.94 0 003.13 3zM61.73 40.07a2.38 2.38 0 01-1 .21c-.57 0-.91-.43-.91-1.15v-9.72c0-6-3.86-9.53-10.32-9.53-6.2 0-10.3 3.26-10.7 8.53v.48h5v-.4c.27-2.62 2.16-4.07 5.33-4.07 3.5 0 5.43 1.74 5.43 4.89v1.11h-4.51c-7.62 0-11.82 2.75-11.82 7.74 0 4.32 3.18 6.91 8.51 6.91 4.32 0 6.76-1.63 8.13-3.27a4.64 4.64 0 004.65 3.27 9.73 9.73 0 002.85-.41l.35-.1-.42-4.72zm-14.11.65c-4.12 0-4.12-2.08-4.12-2.76 0-2.34 2.12-3.53 6.3-3.53h4.8v1.2c0 1.83-2.33 5.09-6.98 5.09zM83.38 22.84a9.3 9.3 0 00-7.37-3c-6.82 0-11.58 5.29-11.58 12.88 0 7.36 4.54 12.31 11.29 12.31a9.73 9.73 0 007.69-3.33l.08 3.09h5.07V9.43h-5.18zm0 9.15v1.07c0 2.88-1.95 7.46-7.18 7.46-4 0-6.49-3-6.49-7.85s2.65-8.25 6.59-8.25c5.19 0 7.08 4.58 7.08 7.58zM111.06 22.84c-1.34-1.53-3.61-3-7.37-3-6.81 0-11.58 5.29-11.58 12.88 0 7.36 4.54 12.31 11.29 12.31a9.71 9.71 0 007.69-3.33l.08 3.09h5.07V9.43h-5.18zm0 9.15v1.07c0 2.88-2 7.46-7.17 7.46-4 0-6.5-3-6.5-7.85s2.61-8.25 6.61-8.25c5.18 0 7.06 4.58 7.06 7.58zM133.37 19.88a9.53 9.53 0 00-7.25 3l-.12-2.76h-4.91v24.71h5.18v-14.3c0-3.71 2.34-6.11 6-6.11 4.12 0 5 3.17 5 5.82v14.59h5.23V29.36c-.08-5.94-3.5-9.48-9.13-9.48z" transform="translate(-9.24 -9.43)"/><path class="cls-1" d="M137.71 10.69h5.23V35.4h-5.23z"/><path class="cls-1" d="M149.68 9.43a3.36 3.36 0 00-3.42 3.37 3.42 3.42 0 006.84 0 3.36 3.36 0 00-3.42-3.37zM170.26 19.88a9.49 9.49 0 00-7.24 3l-.15-2.78H158v24.73h5.18v-14.3c0-3.71 2.34-6.11 6-6.11 4.13 0 5 3.17 5 5.82v14.59h5.23V29.36c-.1-5.94-3.48-9.48-9.15-9.48zM201.44 23a9.08 9.08 0 00-7.38-3.11c-6.87 0-11.48 5-11.48 12.54s4.61 12.65 11.48 12.65a9.13 9.13 0 007.27-3v2.76c0 3.52-2.54 5.62-6.79 5.62-3.76 0-5.49-1-6-3.61l-.07-.37h-5.15l.05.5c.62 5.25 4.48 8 11.19 8 7.24 0 11.92-4 11.92-10.17V20.12h-4.92zm-.11 9v1c0 3.66-2.45 7.56-7 7.56-3.95 0-6.5-3.18-6.5-8.1s2.61-8 6.5-8c4.55-.04 7 3.86 7 7.54zM221.84 30.15c-3.25-.71-5.24-1.24-5.24-3.12 0-2.15 2.37-2.61 4.36-2.61s4.34.55 4.55 3.14v.4l4.87.06v-.47c-.21-4.95-3.53-7.67-9.34-7.67s-9.59 2.8-9.59 7.15c0 5.6 4.87 6.71 8.77 7.6 2.88.66 5.37 1.23 5.37 3.28s-2.61 2.61-4.8 2.61c-4.23 0-5-1.59-5.13-3.14l-.05-.4-4.8-.06v.47c.11 5.09 3.45 7.68 9.93 7.68 6.15 0 10-2.74 10-7.16 0-5.82-4.94-6.91-8.9-7.76z" transform="translate(-9.24 -9.43)"/><path class="cls-2" d="M262 19.88a8.9 8.9 0 00-7.94 4.3c-1.49-2.78-4.25-4.3-7.85-4.3a9 9 0 00-6.9 2.92l-.15-2.68h-4.91v24.71h5.18v-14.3c0-3.77 2.15-6.11 5.62-6.11 3.18 0 4.94 2 4.94 5.67v14.74h5.22v-14.3c0-3.77 2.16-6.11 5.62-6.11 3.19 0 4.94 2 4.94 5.67v14.74H271V29.22c0-5.76-3.45-9.34-9-9.34z" transform="translate(-9.24 -9.43)"/><path class="cls-2" d="M267.34 10.69h5.23V35.4h-5.23z"/><path class="cls-2" d="M279.31 9.43a3.36 3.36 0 00-3.42 3.37 3.42 3.42 0 006.83 0 3.36 3.36 0 00-3.41-3.37zM297 30.15c-3.25-.71-5.24-1.24-5.24-3.12 0-2.15 2.37-2.61 4.36-2.61s4.34.55 4.56 3.14v.4l4.87.06v-.47c-.21-4.95-3.53-7.67-9.34-7.67s-9.59 2.8-9.59 7.15c0 5.6 4.87 6.71 8.78 7.6 2.87.66 5.36 1.23 5.36 3.28s-2.61 2.61-4.79 2.61c-4.22 0-5-1.51-5.14-3.14v-.4l-4.83-.06v.47c.11 5.09 3.45 7.68 9.93 7.68 6.15 0 10-2.74 10-7.16-.04-5.82-4.93-6.91-8.93-7.76zM319.92 30.15c-3.24-.71-5.23-1.24-5.23-3.12 0-2.15 2.37-2.61 4.35-2.61s4.34.55 4.56 3.14v.4l4.87.06v-.47c-.21-4.95-3.52-7.67-9.34-7.67s-9.58 2.8-9.58 7.15c0 5.6 4.86 6.71 8.77 7.6 2.88.66 5.36 1.23 5.36 3.28s-2.6 2.61-4.79 2.61c-4.24 0-5-1.59-5.14-3.14v-.4l-4.8-.06v.47c.11 5.09 3.45 7.68 9.93 7.68 6.15 0 10-2.74 10-7.16-.06-5.82-4.99-6.91-8.96-7.76zM336 9.43a3.36 3.36 0 00-3.42 3.37 3.42 3.42 0 006.83 0A3.36 3.36 0 00336 9.43z" transform="translate(-9.24 -9.43)"/><path class="cls-2" d="M324.07 10.69h5.23V35.4h-5.23z"/><path class="cls-2" d="M355 19.88c-7.19 0-12.21 5.28-12.21 12.84 0 7.38 4.91 12.35 12.21 12.35s12.29-5.07 12.29-12.65-4.93-12.54-12.29-12.54zm0 20.64c-4.15 0-6.93-3.19-6.93-8s2.78-8.15 6.93-8.15 7 3.28 7 8.15-2.73 8-7 8zM383.05 19.88a9.49 9.49 0 00-7.24 3l-.15-2.78h-4.92v24.73h5.18v-14.3c0-3.71 2.34-6.11 6-6.11 4.13 0 5 3.17 5 5.82v14.59h5.23V29.36c-.05-5.94-3.43-9.48-9.1-9.48zM407.19 19.88c-7 0-11.82 5.2-11.82 12.64 0 7.62 4.68 12.55 11.92 12.55 5.91 0 9.93-3 11-8.13l.11-.55h-5.24l-.08.36c-.32 1.41-1.49 3.77-5.78 3.77-3.68 0-6.12-2.41-6.59-6.48h17.73v-1.52c.03-7.8-4.29-12.64-11.25-12.64zM400.89 30c.78-3.49 3.12-5.56 6.35-5.56s5.33 1.92 5.94 5.56zM434.33 19.88a9.49 9.49 0 00-7.23 3l-.16-2.78H422v24.73h5.18v-14.3c0-3.71 2.34-6.11 6-6.11 4.12 0 5 3.17 5 5.82v14.59h5.23V29.36c-.02-5.94-3.41-9.48-9.08-9.48z" transform="translate(-9.24 -9.43)"/></svg>